<svg width="143" height="61" viewBox="0 0 143 61" fill="none" xmlns="http://www.w3.org/2000/svg">
<path d="M11.5698 27.1545H28.3759V33.438H11.5698V27.1545ZM12.1682 41.5169H31.1686V48H4.13919V13.0912H30.5203V19.5743H12.1682V41.5169ZM46.274 48V33.7373L48.1192 38.6245L32.7593 13.0912H41.3369L53.1062 32.69H48.1691L59.9882 13.0912H67.9175L52.5576 38.6245L54.3529 33.7373V48H46.274ZM78.4361 27.1545H95.2422V33.438H78.4361V27.1545ZM79.0345 41.5169H98.0349V48H71.0055V13.0912H97.3866V19.5743H79.0345V41.5169ZM121.269 48.2992C118.643 48.2992 116.199 47.867 113.938 47.0026C111.711 46.105 109.766 44.8582 108.104 43.2624C106.474 41.6333 105.194 39.7549 104.264 37.6271C103.366 35.4661 102.917 33.1056 102.917 30.5456C102.917 27.9856 103.366 25.6417 104.264 23.514C105.194 21.3529 106.474 19.4745 108.104 17.8787C109.766 16.2496 111.711 15.0029 113.938 14.1385C116.166 13.2408 118.609 12.792 121.269 12.792C123.896 12.792 126.323 13.2408 128.55 14.1385C130.778 15.0029 132.706 16.233 134.335 17.8288C135.997 19.4247 137.277 21.3031 138.175 23.4641C139.106 25.6251 139.571 27.9856 139.571 30.5456C139.571 33.1056 139.106 35.4661 138.175 37.6271C137.277 39.7881 135.997 41.6665 134.335 43.2624C132.706 44.8582 130.778 46.105 128.55 47.0026C126.323 47.867 123.896 48.2992 121.269 48.2992ZM132.689 54.9319C131.625 54.9319 130.595 54.7989 129.597 54.5329C128.6 54.267 127.586 53.8348 126.555 53.2363C125.558 52.6711 124.527 51.9231 123.463 50.9922C122.4 50.0613 121.236 48.9309 119.973 47.601L124.012 46.6036C125.043 47.8338 126.04 48.8478 127.004 49.6457C128.002 50.4436 128.966 51.0254 129.897 51.3911C130.861 51.7901 131.808 51.9896 132.739 51.9896C135.332 51.9896 137.543 50.9257 139.372 48.7979L141.167 50.9423C138.973 53.602 136.147 54.9319 132.689 54.9319ZM121.269 45.0078C123.364 45.0078 125.292 44.6587 127.054 43.9606C128.849 43.2291 130.395 42.1985 131.692 40.8686C133.022 39.5388 134.052 38.0094 134.784 36.2806C135.515 34.5186 135.881 32.6069 135.881 30.5456C135.881 28.4511 135.515 26.5394 134.784 24.8106C134.052 23.0485 133.022 21.5192 131.692 20.2226C130.395 18.8927 128.849 17.8787 127.054 17.1805C125.292 16.4491 123.364 16.0834 121.269 16.0834C119.175 16.0834 117.23 16.4491 115.434 17.1805C113.639 17.8787 112.076 18.8927 110.747 20.2226C109.45 21.5192 108.419 23.0485 107.655 24.8106C106.923 26.5394 106.558 28.4511 106.558 30.5456C106.558 32.6069 106.923 34.5186 107.655 36.2806C108.419 38.0094 109.45 39.5388 110.747 40.8686C112.076 42.1985 113.639 43.2291 115.434 43.9606C117.23 44.6587 119.175 45.0078 121.269 45.0078Z" fill="#4056FA"/>
<path d="M125 39.5999C129.197 39.5999 132.6 36.1974 132.6 32C132.6 27.8027 129.197 24.4001 125 24.4001C120.802 24.4001 117.4 27.8027 117.4 32C117.4 36.1974 120.802 39.5999 125 39.5999Z" fill="#5777FF"/>
<path d="M125 36.2876C127.368 36.2876 129.288 34.368 129.288 32C129.288 29.632 127.368 27.7124 125 27.7124C122.632 27.7124 120.712 29.632 120.712 32C120.712 34.368 122.632 36.2876 125 36.2876Z" fill="#4537AF"/>
<path d="M127 29.5C127 30.3284 127.672 31 128.5 31C129.328 31 130 30.3284 130 29.5C130 28.6716 129.328 28 128.5 28C127.672 28 127 28.6716 127 29.5Z" fill="white"/>
</svg>
