<svg width="164" height="70" viewBox="0 0 164 70" fill="none" xmlns="http://www.w3.org/2000/svg">
<path d="M13.3276 31.9874H32.687V39.2256H13.3276V31.9874ZM14.0169 48.532H35.904V56H4.76806V15.7875H35.1572V23.2555H14.0169V48.532ZM53.3045 56V39.5703L55.43 45.2001L37.7365 15.7875H47.6173L61.1746 38.3639H55.4874L69.1022 15.7875H78.2362L60.5427 45.2001L62.6108 39.5703V56H53.3045ZM90.3529 31.9874H109.712V39.2256H90.3529V31.9874ZM91.0423 48.532H112.929V56H81.7934V15.7875H112.183V23.2555H91.0423V48.532ZM139.694 56.3447C136.668 56.3447 133.853 55.8468 131.249 54.8511C128.683 53.817 126.443 52.3809 124.528 50.5426C122.651 48.666 121.177 46.5022 120.104 44.0511C119.07 41.5618 118.553 38.8427 118.553 35.8937C118.553 32.9448 119.07 30.2448 120.104 27.7938C121.177 25.3044 122.651 23.1406 124.528 21.3023C126.443 19.4258 128.683 17.9896 131.249 16.9939C133.815 15.9598 136.63 15.4428 139.694 15.4428C142.719 15.4428 145.515 15.9598 148.081 16.9939C150.647 17.9896 152.868 19.4066 154.745 21.2449C156.659 23.0832 158.134 25.247 159.168 27.7363C160.24 30.2257 160.776 32.9448 160.776 35.8937C160.776 38.8427 160.24 41.5618 159.168 44.0511C158.134 46.5405 156.659 48.7043 154.745 50.5426C152.868 52.3809 150.647 53.817 148.081 54.8511C145.515 55.8468 142.719 56.3447 139.694 56.3447ZM152.849 63.9851C151.623 63.9851 150.436 63.8319 149.287 63.5255C148.138 63.2191 146.97 62.7212 145.783 62.0319C144.634 61.3808 143.447 60.5191 142.221 59.4468C140.996 58.3745 139.655 57.0723 138.2 55.5404L142.853 54.3915C144.04 55.8085 145.189 56.9766 146.3 57.8957C147.449 58.8149 148.56 59.4851 149.632 59.9064C150.742 60.3659 151.834 60.5957 152.906 60.5957C155.894 60.5957 158.44 59.3702 160.547 56.9191L162.615 59.3893C160.087 62.4532 156.832 63.9851 152.849 63.9851ZM139.694 52.5532C142.106 52.5532 144.328 52.1511 146.357 51.3468C148.425 50.5043 150.206 49.3171 151.7 47.7852C153.232 46.2533 154.419 44.4916 155.262 42.5001C156.104 40.4703 156.525 38.2682 156.525 35.8937C156.525 33.481 156.104 31.2789 155.262 29.2874C154.419 27.2576 153.232 25.4959 151.7 24.0023C150.206 22.4704 148.425 21.3023 146.357 20.4981C144.328 19.6555 142.106 19.2343 139.694 19.2343C137.281 19.2343 135.04 19.6555 132.972 20.4981C130.904 21.3023 129.104 22.4704 127.572 24.0023C126.079 25.4959 124.892 27.2576 124.011 29.2874C123.168 31.2789 122.747 33.481 122.747 35.8937C122.747 38.2682 123.168 40.4703 124.011 42.5001C124.892 44.4916 126.079 46.2533 127.572 47.7852C129.104 49.3171 130.904 50.5043 132.972 51.3468C135.04 52.1511 137.281 52.5532 139.694 52.5532Z" fill="white"/>
<path d="M143.991 45.6163C148.826 45.6163 152.746 41.6967 152.746 36.8617C152.746 32.0267 148.826 28.1072 143.991 28.1072C139.156 28.1072 135.237 32.0267 135.237 36.8617C135.237 41.6967 139.156 45.6163 143.991 45.6163Z" fill="white"/>
<path d="M143.991 41.8006C146.719 41.8006 148.93 39.5894 148.93 36.8616C148.93 34.1339 146.719 31.9226 143.991 31.9226C141.264 31.9226 139.052 34.1339 139.052 36.8616C139.052 39.5894 141.264 41.8006 143.991 41.8006Z" fill="#4537AF"/>
<path d="M146.295 33.9818C146.295 34.9361 147.069 35.7097 148.023 35.7097C148.978 35.7097 149.751 34.9361 149.751 33.9818C149.751 33.0275 148.978 32.2539 148.023 32.2539C147.069 32.2539 146.295 33.0275 146.295 33.9818Z" fill="white"/>
</svg>
